<?xml version="1.0" encoding="UTF-8"?><svg id="a" xmlns="http://www.w3.org/2000/svg" xmlns:xlink="http://www.w3.org/1999/xlink" viewBox="0 0 100 100"><defs><style>.c{fill:#fff;fill-rule:evenodd;}.d{fill:#203c73;}.e{fill:url(#b);}.f{fill:none;}.g{fill:#f8f9fa;}</style><radialGradient id="b" cx="-163.04" cy="346.85" fx="-163.04" fy="346.85" r=".57" gradientTransform="translate(9064.89 19226.3) scale(55.35 -55.35)" gradientUnits="userSpaceOnUse"><stop offset="0" stop-color="#4099d4"/><stop offset=".45" stop-color="#387ab2"/><stop offset="1" stop-color="#2d5084"/></radialGradient></defs><rect class="g" width="100" height="100"/><g><g><path class="f" d="M49.44,17.52h0Z"/><path class="e" d="M49.46,17.52h-.04c-11.21,.01-20.3,9.1-20.3,20.32s9.1,20.32,20.32,20.32,20.32-9.1,20.32-20.32-9.09-20.31-20.3-20.32Z"/></g><path class="c" d="M45.99,25.79l2.86,3.8-2.86,3.95v-7.75Zm-3.76,10.27v-10.37h3.16v8.68l-2.18,3.01-.98-1.31Zm-3.84-10.37v5.29l3.24,4.29v-9.58h-3.24Zm14.49,.1l-2.86,3.8,2.86,3.95v-7.75Zm3.76,10.27v-10.37h-3.16v8.68l2.18,3.01,.98-1.31Zm3.84-10.37v5.29l-3.24,4.29v-9.58h3.24Zm-3.84,14.13v10.15h-3.16v-14.53l3.16,4.38Zm3.72,5.13v5.02h-3.12v-9.31l3.12,4.29Zm-7.48-10.34v15.35l-3.15-4.33v-15.37l3.15,4.35Zm-10.64,5.2v10.15h3.16v-14.53l-3.16,4.38Zm-3.72,5.13v5.02h3.12v-9.31l-3.12,4.29Zm7.48-10.34v15.35l3.15-4.33v-15.37l-3.15,4.35Z"/><g><path class="d" d="M54.08,65.05c-.79-.35-2.48-1.06-4.18-1.06-1.83,0-3.07,1.06-3.07,2.56,0,2.53,3.24,3.24,5.55,4.77,1.9,1.27,2.84,2.08,2.84,4.36,0,3.45-2.74,4.97-6.18,4.97-2.05,0-3.62-.41-4.05-.53v-2.18c.91,.43,2.69,1.22,4.39,1.22,2.2,0,3.6-1.06,3.6-3.07,0-2.46-2.66-3.32-5.25-4.74-1.55-.84-2.91-2.03-2.91-4.33,0-2.81,2.15-4.41,5.5-4.41,1.37,0,3.07,.28,3.78,.43v2.03Z"/><polygon class="d" points="61.89 71.33 56.92 62.87 59.33 62.87 63.13 69.36 66.91 62.87 69.01 62.87 64.12 71.03 69.62 80.36 67.16 80.36 62.88 73.03 58.52 80.36 56.46 80.36 61.89 71.33"/><path class="d" d="M37.45,62.87h-2.31l-5.88,17.49h1.9l1.77-5.53,.18-.57h6.07l.19,.57,1.8,5.53h2.18l-5.91-17.49Zm-1.32,1.98h.05l2.56,8.04h-5.19l2.58-8.04Z"/></g></g></svg>